# Blender 5.0.1
# www.blender.org
mtllib Wall_Door.mtl
o Cube
v -4.000000 0.000000 0.100000
v -4.000000 8.000000 0.100000
v -4.000000 0.000000 -0.100000
v -4.000000 8.000000 -0.100000
v 4.000000 0.000000 0.100000
v 4.000000 8.000000 0.100000
v 4.000000 0.000000 -0.100000
v 4.000000 8.000000 -0.100000
v 1.333333 0.000000 -0.100000
v -1.333333 0.000000 -0.100000
v -1.333333 8.000000 -0.100000
v 1.333333 8.000000 -0.100000
v -1.333333 0.000000 0.100000
v 1.333333 0.000000 0.100000
v 1.333333 8.000000 0.100000
v -1.333333 8.000000 0.100000
v -4.000000 4.724814 0.100000
v -4.000000 4.724814 -0.100000
v 4.000000 4.724814 -0.100000
v 4.000000 4.724814 0.100000
v 1.333333 4.724814 0.100000
v -1.333333 4.724814 0.100000
v -1.333333 4.724814 -0.100000
v 1.333333 4.724814 -0.100000
vn -1.0000 -0.0000 -0.0000
vn -0.0000 -0.0000 -1.0000
vn 1.0000 -0.0000 -0.0000
vn -0.0000 -0.0000 1.0000
vn -0.0000 -1.0000 -0.0000
vn -0.0000 1.0000 -0.0000
vt 0.500000 0.704699
vt 0.500000 0.500000
vt 0.512500 0.500000
vt 0.512500 0.704699
vt 0.204699 0.166667
vt -0.000000 0.166667
vt 0.000000 -0.000000
vt 0.204699 -0.000000
vt 0.512500 0.204699
vt 0.512500 0.000000
vt 0.525000 0.000000
vt 0.525000 0.204699
vt 0.204699 0.666667
vt 0.000000 0.666667
vt 0.000000 0.500000
vt 0.204699 0.500000
vt 0.537500 0.295301
vt 0.537500 0.461968
vt 0.525000 0.461968
vt 0.525000 0.295301
vt 0.512500 0.333333
vt 0.512500 0.500000
vt 0.500000 0.333333
vt 0.512500 -0.000000
vt 0.512500 0.166667
vt 0.500000 0.166667
vt 0.500000 -0.000000
vt 0.537500 0.461968
vt 0.537500 0.628634
vt 0.525000 0.628634
vt 0.525000 0.461968
vt 0.512500 0.500000
vt 0.525000 0.500000
vt 0.525000 0.795301
vt 0.512500 0.795301
vt 0.204699 1.000000
vt -0.000000 1.000000
vt -0.000000 0.833333
vt 0.204699 0.833333
vt 0.204699 0.500000
vt -0.000000 0.500000
vt -0.000000 0.333333
vt 0.204699 0.333333
vt 0.537500 0.795301
vt 0.525000 0.795301
vt 0.500000 0.500000
vt 0.500000 0.333333
vt 0.537500 0.000000
vt 0.537500 0.295301
vt 0.525000 0.000000
vt 0.500000 1.000000
vt 0.500000 0.833333
vt 0.500000 0.666667
vt 0.500000 0.500000
vt 0.525000 0.500000
vt 0.500000 -0.000000
vt 0.500000 1.000000
vt 0.512500 1.000000
s 0
f 17/1/1 2/2/1 4/3/1 18/4/1
f 24/5/2 12/6/2 8/7/2 19/8/2
f 19/9/3 8/10/3 6/11/3 20/12/3
f 22/13/4 16/14/4 2/15/4 17/16/4
f 9/17/5 7/18/5 5/19/5 14/20/5
f 11/21/6 4/22/6 2/2/6 16/23/6
f 8/24/6 12/25/6 15/26/6 6/27/6
f 12/25/6 11/21/6 16/23/6 15/26/6
f 3/28/5 10/29/5 13/30/5 1/31/5
f 21/32/1 24/33/1 9/34/1 14/35/1
f 20/36/4 6/37/4 15/38/4 21/39/4
f 21/39/4 15/38/4 16/14/4 22/13/4
f 18/40/2 4/41/2 11/42/2 23/43/2
f 23/43/2 11/42/2 12/6/2 24/5/2
f 23/29/5 24/44/5 21/45/5 22/30/5
f 3/46/2 18/40/2 23/43/2 10/47/2
f 22/48/3 13/49/3 10/20/3 23/50/3
f 5/51/4 20/36/4 21/39/4 14/52/4
f 13/53/4 22/13/4 17/16/4 1/54/4
f 7/3/3 19/9/3 20/12/3 5/55/3
f 9/26/2 24/5/2 19/8/2 7/56/2
f 1/57/1 17/1/1 18/4/1 3/58/1
