# Blender 5.0.1
# www.blender.org
mtllib Wall.mtl
o Cube
v -4.000000 0.000000 0.100000
v -4.000000 8.000000 0.100000
v -4.000000 0.000000 -0.100000
v -4.000000 8.000000 -0.100000
v 4.000000 0.000000 0.100000
v 4.000000 8.000000 0.100000
v 4.000000 0.000000 -0.100000
v 4.000000 8.000000 -0.100000
vn -1.0000 -0.0000 -0.0000
vn -0.0000 -0.0000 -1.0000
vn 1.0000 -0.0000 -0.0000
vn -0.0000 -0.0000 1.0000
vn -0.0000 -1.0000 -0.0000
vn -0.0000 1.0000 -0.0000
vt 0.512500 0.500000
vt 0.512500 0.000000
vt 0.525000 0.000000
vt 0.525000 0.500000
vt 0.500000 0.500000
vt -0.000000 0.500000
vt 0.000000 -0.000000
vt 0.500000 -0.000000
vt 0.512500 1.000000
vt 0.525000 1.000000
vt 0.500000 1.000000
vt -0.000000 1.000000
vt 0.000000 0.500000
vt 0.500000 0.500000
vt 0.512500 -0.000000
vt 0.512500 0.500000
vt 0.500000 0.500000
vt 0.500000 -0.000000
vt 0.512500 0.500000
vt 0.512500 1.000000
vt 0.500000 1.000000
vt 0.500000 0.500000
s 0
f 1/1/1 2/2/1 4/3/1 3/4/1
f 3/5/2 4/6/2 8/7/2 7/8/2
f 7/9/3 8/1/3 6/4/3 5/10/3
f 5/11/4 6/12/4 2/13/4 1/14/4
f 3/15/5 7/16/5 5/17/5 1/18/5
f 8/19/6 4/20/6 2/21/6 6/22/6
