# Blender 3.1.2
# www.blender.org
o Plane
v -0.271473 0.036407 0.598389
v 1.057958 -0.041960 0.330390
v -0.875114 -0.055370 -0.571159
v 0.437301 -0.028635 -0.685650
v -1.557426 0.099605 -1.722333
v -2.281031 0.073892 -1.407831
v -0.383076 0.166697 -2.290020
v 0.697476 0.090481 -1.833825
v 1.484544 0.139684 -2.199855
v -2.046586 -0.031224 -0.593320
v -1.397018 -0.172174 0.449393
v -0.571878 0.035220 -1.347689
v -1.038071 -0.055458 1.453603
v -2.569391 -0.110036 0.120465
v -2.927858 -0.156757 0.550776
v -2.854848 -0.224224 1.084989
v -2.084326 -0.297579 1.563830
v -1.526802 -0.243078 2.041297
v 1.666801 0.168371 -0.458487
v 1.366374 0.131153 -1.113505
v 2.370654 0.075596 -1.812936
v 2.599437 -0.081743 -0.575739
v 2.093418 -0.207556 0.515238
l 1 2
l 3 1
l 2 4
l 3 5
l 5 6
l 5 7
l 4 8
l 8 9
l 3 10
l 3 11
l 3 12
l 1 13
l 11 14
l 14 15
l 15 16
l 16 17
l 13 18
l 2 19
l 4 20
l 8 7
l 21 22
l 17 18
l 22 23
l 4 3
l 9 21
l 12 8
l 19 20
l 23 2
