# Blender 5.0.1
# www.blender.org
mtllib Right.mtl
o Arrow
v -0.005275 -0.033986 -0.000000
v -0.005275 -0.033333 -0.006630
v -0.005275 -0.031399 -0.013006
v -0.005275 -0.028258 -0.018881
v -0.005275 -0.024032 -0.024032
v -0.005275 -0.018881 -0.028258
v -0.005275 -0.013006 -0.031399
v -0.005275 -0.006630 -0.033333
v -0.005275 0.000000 -0.033986
v -0.005275 0.006630 -0.033333
v -0.005275 0.013006 -0.031399
v -0.005275 0.018881 -0.028258
v -0.005275 0.024032 -0.024032
v -0.005275 0.028258 -0.018881
v -0.005275 0.031399 -0.013006
v -0.005275 0.033333 -0.006630
v -0.005275 0.033986 0.000000
v -0.005275 0.033333 0.006630
v -0.005275 0.031399 0.013006
v -0.005275 0.028258 0.018881
v -0.005275 0.024032 0.024032
v -0.005275 0.018881 0.028258
v -0.005275 0.013006 0.031399
v -0.005275 0.006630 0.033333
v -0.005275 -0.000000 0.033986
v -0.005275 -0.006630 0.033333
v -0.005275 -0.013006 0.031399
v -0.005275 -0.018881 0.028258
v -0.005275 -0.024032 0.024032
v -0.005275 -0.028258 0.018881
v -0.005275 -0.031399 0.013006
v -0.005275 -0.033333 0.006630
v 0.945469 -0.031832 -0.000000
v 0.945469 -0.031220 -0.006210
v 0.945469 -0.029409 -0.012181
v 0.945469 -0.026467 -0.017685
v 0.945469 -0.022508 -0.022508
v 0.945469 -0.017685 -0.026467
v 0.945469 -0.012181 -0.029409
v 0.945469 -0.006210 -0.031220
v 0.945469 0.000000 -0.031832
v 0.945469 0.006210 -0.031220
v 0.945469 0.012181 -0.029409
v 0.945469 0.017685 -0.026467
v 0.945469 0.022508 -0.022508
v 0.945469 0.026467 -0.017685
v 0.945469 0.029409 -0.012181
v 0.945469 0.031220 -0.006210
v 0.945469 0.031832 -0.000000
v 0.945469 0.031220 0.006210
v 0.945469 0.029409 0.012181
v 0.945469 0.026467 0.017685
v 0.945469 0.022508 0.022508
v 0.945469 0.017685 0.026467
v 0.945469 0.012181 0.029409
v 0.945469 0.006210 0.031220
v 0.945469 -0.000000 0.031832
v 0.945469 -0.006210 0.031220
v 0.945469 -0.012181 0.029409
v 0.945469 -0.017685 0.026467
v 0.945469 -0.022508 0.022508
v 0.945469 -0.026467 0.017685
v 0.945469 -0.029409 0.012181
v 0.945469 -0.031220 0.006210
v 0.925134 -0.107281 -0.000000
v 0.925134 -0.105219 -0.020929
v 0.925134 -0.099114 -0.041055
v 0.925134 -0.089201 -0.059602
v 0.925134 -0.075859 -0.075859
v 0.925134 -0.059602 -0.089201
v 0.925134 -0.041055 -0.099114
v 0.925134 -0.020929 -0.105219
v 0.925134 0.000000 -0.107281
v 0.925134 0.020929 -0.105219
v 0.925134 0.041055 -0.099114
v 0.925134 0.059602 -0.089201
v 0.925134 0.075859 -0.075859
v 0.925134 0.089201 -0.059602
v 0.925134 0.099114 -0.041055
v 0.925134 0.105219 -0.020929
v 0.925134 0.107281 -0.000000
v 0.925134 0.105219 0.020929
v 0.925134 0.099114 0.041055
v 0.925134 0.089201 0.059602
v 0.925134 0.075859 0.075859
v 0.925134 0.059602 0.089201
v 0.925134 0.041055 0.099114
v 0.925134 0.020929 0.105219
v 0.925134 -0.000000 0.107281
v 0.925134 -0.020929 0.105219
v 0.925134 -0.041055 0.099114
v 0.925134 -0.059602 0.089201
v 0.925134 -0.075859 0.075859
v 0.925134 -0.089201 0.059602
v 0.925134 -0.099114 0.041055
v 0.925134 -0.105219 0.020929
v 1.119209 -0.001881 -0.000000
v 1.119209 -0.001845 -0.000367
v 1.119209 -0.001738 -0.000720
v 1.119209 -0.001564 -0.001045
v 1.119209 -0.001330 -0.001330
v 1.119209 -0.001045 -0.001564
v 1.119209 -0.000720 -0.001738
v 1.119209 -0.000367 -0.001845
v 1.119209 0.000000 -0.001881
v 1.119209 0.000367 -0.001845
v 1.119209 0.000720 -0.001738
v 1.119209 0.001045 -0.001564
v 1.119209 0.001330 -0.001330
v 1.119209 0.001564 -0.001045
v 1.119209 0.001738 -0.000720
v 1.119209 0.001845 -0.000367
v 1.119209 0.001881 -0.000000
v 1.119209 0.001845 0.000367
v 1.119209 0.001738 0.000720
v 1.119209 0.001564 0.001045
v 1.119209 0.001330 0.001330
v 1.119209 0.001045 0.001564
v 1.119209 0.000720 0.001738
v 1.119209 0.000367 0.001845
v 1.119209 -0.000000 0.001881
v 1.119209 -0.000367 0.001845
v 1.119209 -0.000720 0.001738
v 1.119209 -0.001045 0.001564
v 1.119209 -0.001330 0.001330
v 1.119209 -0.001564 0.001045
v 1.119209 -0.001738 0.000720
v 1.119209 -0.001845 0.000367
vn -0.0023 0.2903 0.9569
vn -0.0023 -0.6344 -0.7730
vn -0.0023 0.0980 0.9952
vn -0.0023 -0.4714 -0.8819
vn -0.0023 -0.0980 0.9952
vn -0.0023 -0.2903 -0.9569
vn -0.0023 -0.2903 0.9569
vn -0.0023 -0.0980 -0.9952
vn -0.0023 -0.4714 0.8819
vn -0.0023 0.0980 -0.9952
vn -0.0023 -0.6344 0.7730
vn -0.0023 0.2903 -0.9569
vn -0.0023 -0.7730 0.6344
vn -0.0023 0.4714 -0.8819
vn -0.0023 -0.8819 0.4714
vn -0.0023 0.9952 0.0980
vn -0.0023 0.6344 -0.7730
vn -0.0023 -0.9569 0.2903
vn -0.0023 0.9569 0.2903
vn -0.0023 0.7730 -0.6344
vn -0.0023 -0.9952 0.0980
vn -0.0023 0.8819 0.4714
vn -0.0023 0.8819 -0.4714
vn -0.0023 -0.9952 -0.0980
vn -0.0023 0.7730 0.6344
vn -0.0023 0.9569 -0.2903
vn -0.0023 -0.9569 -0.2903
vn -0.0023 0.6344 0.7730
vn -0.0023 0.9952 -0.0980
vn -0.0023 -0.8819 -0.4714
vn -0.0023 0.4714 0.8819
vn -0.0023 -0.7730 -0.6344
vn 0.9652 0.2502 -0.0759
vn 0.9652 -0.2502 -0.0759
vn 0.9652 -0.2021 0.1658
vn 0.9652 0.2601 -0.0256
vn 0.9652 -0.2305 -0.1232
vn 0.9652 -0.2305 0.1232
vn 0.9652 0.2601 0.0256
vn 0.9652 -0.2021 -0.1658
vn 0.9652 -0.2502 0.0759
vn 0.9652 0.2502 0.0759
vn 0.9652 -0.1658 -0.2021
vn 0.9652 -0.2601 0.0256
vn 0.9652 0.2305 0.1232
vn 0.9652 -0.1232 -0.2305
vn 0.9652 0.2021 0.1658
vn 0.9652 -0.0759 -0.2502
vn 0.9652 0.1658 0.2021
vn 0.9652 -0.0256 -0.2601
vn 0.9652 0.1232 0.2305
vn 0.9652 0.0256 -0.2601
vn 0.9652 0.0759 0.2502
vn 0.9652 0.0759 -0.2502
vn 0.9652 0.0256 0.2601
vn 0.9652 0.1232 -0.2305
vn 0.9652 -0.0256 0.2601
vn 0.9652 0.1658 -0.2021
vn 0.9652 -0.0759 0.2502
vn 0.9652 0.2021 -0.1658
vn 0.9652 -0.1232 0.2305
vn 0.9652 0.2305 -0.1232
vn 0.9652 -0.2601 -0.0256
vn 0.9652 -0.1658 0.2021
vn -0.4755 -0.8419 -0.2554
vn -0.4755 0.5581 0.6800
vn -0.4755 0.8755 -0.0863
vn -0.4755 -0.7759 -0.4147
vn -0.4755 0.4147 0.7759
vn -0.4755 -0.6800 -0.5581
vn -0.4755 0.2554 0.8419
vn -0.4755 -0.5581 -0.6800
vn -0.4755 0.0863 0.8755
vn -0.4755 -0.4147 -0.7759
vn -0.4755 -0.0863 0.8755
vn -0.4755 -0.2554 -0.8419
vn -0.4755 -0.2554 0.8419
vn -0.4755 -0.0863 -0.8755
vn -0.4755 -0.4147 0.7759
vn -0.4755 0.0863 -0.8755
vn -0.4755 -0.5581 0.6800
vn -0.4755 0.2554 -0.8419
vn -0.4755 -0.6800 0.5581
vn -0.4755 0.4147 -0.7759
vn -0.4755 -0.7759 0.4147
vn -0.4755 0.8755 0.0863
vn -0.4755 0.5581 -0.6800
vn -0.4755 -0.8419 0.2554
vn -0.4755 0.8419 0.2554
vn -0.4755 0.6800 -0.5581
vn -0.4755 -0.8755 0.0863
vn -0.4755 0.7759 0.4147
vn -0.4755 0.7759 -0.4147
vn -0.4755 -0.8755 -0.0863
vn -0.4755 0.6800 0.5581
vn -0.4755 0.8419 -0.2554
vt 0.000000 0.000000
s 1
f 8/1/1 7/1/1 39/1/1 40/1/1
f 22/1/2 21/1/2 53/1/2 54/1/2
f 9/1/3 8/1/3 40/1/3 41/1/3
f 23/1/4 22/1/4 54/1/4 55/1/4
f 10/1/5 9/1/5 41/1/5 42/1/5
f 24/1/6 23/1/6 55/1/6 56/1/6
f 11/1/7 10/1/7 42/1/7 43/1/7
f 25/1/8 24/1/8 56/1/8 57/1/8
f 12/1/9 11/1/9 43/1/9 44/1/9
f 26/1/10 25/1/10 57/1/10 58/1/10
f 13/1/11 12/1/11 44/1/11 45/1/11
f 27/1/12 26/1/12 58/1/12 59/1/12
f 14/1/13 13/1/13 45/1/13 46/1/13
f 28/1/14 27/1/14 59/1/14 60/1/14
f 15/1/15 14/1/15 46/1/15 47/1/15
f 2/1/16 1/1/16 33/1/16 34/1/16
f 29/1/17 28/1/17 60/1/17 61/1/17
f 16/1/18 15/1/18 47/1/18 48/1/18
f 3/1/19 2/1/19 34/1/19 35/1/19
f 30/1/20 29/1/20 61/1/20 62/1/20
f 17/1/21 16/1/21 48/1/21 49/1/21
f 4/1/22 3/1/22 35/1/22 36/1/22
f 31/1/23 30/1/23 62/1/23 63/1/23
f 18/1/24 17/1/24 49/1/24 50/1/24
f 5/1/25 4/1/25 36/1/25 37/1/25
f 32/1/26 31/1/26 63/1/26 64/1/26
f 19/1/27 18/1/27 50/1/27 51/1/27
f 6/1/28 5/1/28 37/1/28 38/1/28
f 1/1/29 32/1/29 64/1/29 33/1/29
f 20/1/30 19/1/30 51/1/30 52/1/30
f 7/1/31 6/1/31 38/1/31 39/1/31
f 21/1/32 20/1/32 52/1/32 53/1/32
f 48/1/33 47/1/33 79/1/33 80/1/33
f 35/1/34 34/1/34 66/1/34 67/1/34
f 62/1/35 61/1/35 93/1/35 94/1/35
f 49/1/36 48/1/36 80/1/36 81/1/36
f 36/1/37 35/1/37 67/1/37 68/1/37
f 63/1/38 62/1/38 94/1/38 95/1/38
f 50/1/39 49/1/39 81/1/39 82/1/39
f 37/1/40 36/1/40 68/1/40 69/1/40
f 64/1/41 63/1/41 95/1/41 96/1/41
f 51/1/42 50/1/42 82/1/42 83/1/42
f 38/1/43 37/1/43 69/1/43 70/1/43
f 33/1/44 64/1/44 96/1/44 65/1/44
f 52/1/45 51/1/45 83/1/45 84/1/45
f 39/1/46 38/1/46 70/1/46 71/1/46
f 53/1/47 52/1/47 84/1/47 85/1/47
f 40/1/48 39/1/48 71/1/48 72/1/48
f 54/1/49 53/1/49 85/1/49 86/1/49
f 41/1/50 40/1/50 72/1/50 73/1/50
f 55/1/51 54/1/51 86/1/51 87/1/51
f 42/1/52 41/1/52 73/1/52 74/1/52
f 56/1/53 55/1/53 87/1/53 88/1/53
f 43/1/54 42/1/54 74/1/54 75/1/54
f 57/1/55 56/1/55 88/1/55 89/1/55
f 44/1/56 43/1/56 75/1/56 76/1/56
f 58/1/57 57/1/57 89/1/57 90/1/57
f 45/1/58 44/1/58 76/1/58 77/1/58
f 59/1/59 58/1/59 90/1/59 91/1/59
f 46/1/60 45/1/60 77/1/60 78/1/60
f 60/1/61 59/1/61 91/1/61 92/1/61
f 47/1/62 46/1/62 78/1/62 79/1/62
f 34/1/63 33/1/63 65/1/63 66/1/63
f 61/1/64 60/1/64 92/1/64 93/1/64
f 83/1/65 82/1/65 114/1/65 115/1/65
f 70/1/66 69/1/66 101/1/66 102/1/66
f 65/1/67 96/1/67 128/1/67 97/1/67
f 84/1/68 83/1/68 115/1/68 116/1/68
f 71/1/69 70/1/69 102/1/69 103/1/69
f 85/1/70 84/1/70 116/1/70 117/1/70
f 72/1/71 71/1/71 103/1/71 104/1/71
f 86/1/72 85/1/72 117/1/72 118/1/72
f 73/1/73 72/1/73 104/1/73 105/1/73
f 87/1/74 86/1/74 118/1/74 119/1/74
f 74/1/75 73/1/75 105/1/75 106/1/75
f 88/1/76 87/1/76 119/1/76 120/1/76
f 75/1/77 74/1/77 106/1/77 107/1/77
f 89/1/78 88/1/78 120/1/78 121/1/78
f 76/1/79 75/1/79 107/1/79 108/1/79
f 90/1/80 89/1/80 121/1/80 122/1/80
f 77/1/81 76/1/81 108/1/81 109/1/81
f 91/1/82 90/1/82 122/1/82 123/1/82
f 78/1/83 77/1/83 109/1/83 110/1/83
f 92/1/84 91/1/84 123/1/84 124/1/84
f 79/1/85 78/1/85 110/1/85 111/1/85
f 66/1/86 65/1/86 97/1/86 98/1/86
f 93/1/87 92/1/87 124/1/87 125/1/87
f 80/1/88 79/1/88 111/1/88 112/1/88
f 67/1/89 66/1/89 98/1/89 99/1/89
f 94/1/90 93/1/90 125/1/90 126/1/90
f 81/1/91 80/1/91 112/1/91 113/1/91
f 68/1/92 67/1/92 99/1/92 100/1/92
f 95/1/93 94/1/93 126/1/93 127/1/93
f 82/1/94 81/1/94 113/1/94 114/1/94
f 69/1/95 68/1/95 100/1/95 101/1/95
f 96/1/96 95/1/96 127/1/96 128/1/96
